<svg viewBox="0 0 100 100" fill="none" xmlns="http://www.w3.org/2000/svg" aria-label="Satoshi Genesis logo">
  <defs>
    <linearGradient id="sgenGold" x1="12" y1="8" x2="82" y2="92" gradientUnits="userSpaceOnUse">
      <stop stop-color="#FDE68A" />
      <stop offset="0.45" stop-color="#FBBF24" />
      <stop offset="1" stop-color="#B45309" />
    </linearGradient>
  </defs>
  <circle cx="50" cy="50" r="42" stroke="url(#sgenGold)" stroke-width="4" />
  <circle cx="50" cy="50" r="33" stroke="url(#sgenGold)" stroke-opacity="0.9" stroke-width="2.5" />
  <path d="M50 18V30" stroke="url(#sgenGold)" stroke-width="4" stroke-linecap="round" />
  <path d="M50 70V82" stroke="url(#sgenGold)" stroke-width="4" stroke-linecap="round" />
  <path d="M61.5 34.5C58.8 31.9 54.8 30.4 49.6 30.4C42.3 30.4 37.8 34.1 37.8 39.5C37.8 44.6 41.6 47.2 49.4 48.7C56.5 50 60.2 52 60.2 56.7C60.2 61.9 55.7 65.6 48.8 65.6C43.1 65.6 38.6 63.7 35.2 60.2" stroke="url(#sgenGold)" stroke-width="6" stroke-linecap="round" stroke-linejoin="round" />
  <path d="M49 24.5V30.5" stroke="url(#sgenGold)" stroke-width="5" stroke-linecap="round" />
  <path d="M49 65.5V75.5" stroke="url(#sgenGold)" stroke-width="5" stroke-linecap="round" />
  <circle cx="50" cy="50" r="46" stroke="url(#sgenGold)" stroke-opacity="0.25" stroke-width="1.2" stroke-dasharray="2.5 6.5" />
</svg>